<svg xmlns="http://www.w3.org/2000/svg" viewBox="0 0 64 64" fill="none">
  <!-- Nápady: žárovka v doodle stylu (krémová linka, zlatá záře, fialová jiskra) -->
  <g stroke="#F4ECDD" stroke-width="2.6" stroke-linecap="round" stroke-linejoin="round">
    <!-- baňka -->
    <path d="M32 10.5 Q44.5 11 45 23.5 Q45.2 30 40 35 Q37.5 37.5 37.2 41.5 L26.8 41.5 Q26.5 37.5 24 35 Q18.8 30 19 23.5 Q19.5 11 32 10.5 Z"/>
    <!-- vlákno -->
    <path d="M28.5 41 L30 31.5 Q32 29.5 34 31.5 L35.5 41" stroke-width="1.9"/>
    <!-- závit -->
    <path d="M27 45.5 L37 45.5"/>
    <path d="M27.6 49 L36.4 49"/>
    <path d="M29.5 52.5 L34.5 52.5"/>
  </g>
  <!-- paprsky (zlatá záře) -->
  <g stroke="#FFC93C" stroke-width="2.4" stroke-linecap="round">
    <path d="M32 3 L32 6.8"/>
    <path d="M15.5 8.5 L18 11.5"/>
    <path d="M48.5 8.5 L46 11.5"/>
    <path d="M9.5 23 L13.3 23.5"/>
    <path d="M54.5 23 L50.7 23.5"/>
  </g>
  <path d="M50 40 L51.1 43.2 L54.2 44.3 L51.1 45.4 L50 48.6 L48.9 45.4 L45.8 44.3 L48.9 43.2 Z" fill="#7B5EA7"/>
  <circle cx="13" cy="42" r="1.9" fill="#9CB380"/>
</svg>
