<svg xmlns="http://www.w3.org/2000/svg" viewBox="0 0 64 64" fill="none">
  <!-- Předplatná: platební karta v doodle stylu -->
  <g stroke="#F4ECDD" stroke-width="2.6" stroke-linecap="round" stroke-linejoin="round">
    <!-- karta (lehce natočená) -->
    <path d="M9.5 22 Q9 18.5 12.5 18 L51 15.5 Q54.5 15.3 55 18.8 L57 41 Q57.3 44.5 53.8 44.8 L15.5 47.5 Q12 47.8 11.5 44.3 Z"/>
    <!-- magnetický pruh -->
    <path d="M11 27.5 L55.5 24.5" stroke-width="5" opacity="0.85"/>
  </g>
  <!-- čip -->
  <rect x="16" y="34" width="8" height="6.5" rx="1.5" stroke="#FFC93C" stroke-width="2.2" transform="rotate(-3 20 37)"/>
  <!-- číslice -->
  <g stroke="#FFC93C" stroke-width="2.2" stroke-linecap="round">
    <path d="M30 39.5 L34 39.2"/>
    <path d="M38 38.9 L42 38.6"/>
    <path d="M46 38.3 L50 38"/>
  </g>
  <path d="M54 51 L55.1 54.2 L58.2 55.3 L55.1 56.4 L54 59.6 L52.9 56.4 L49.8 55.3 L52.9 54.2 Z" fill="#7B5EA7"/>
  <circle cx="8" cy="54" r="1.9" fill="#9CB380"/>
  <path d="M7 9 L8.1 12.2 L11.2 13.3 L8.1 14.4 L7 17.6 L5.9 14.4 L2.8 13.3 L5.9 12.2 Z" fill="#FFC93C"/>
</svg>
