<svg xmlns="http://www.w3.org/2000/svg" viewBox="0 0 64 64" fill="none">
  <!-- Klienti: dva paňduláci v doodle stylu (krémová linka, zlatý/fialový akcent) -->
  <g stroke="#F4ECDD" stroke-width="2.6" stroke-linecap="round" stroke-linejoin="round">
    <!-- postava A (vlevo, mává) -->
    <circle cx="20" cy="15.5" r="6.4"/>
    <path d="M20 22.2 L20.3 39.5"/>
    <path d="M20 27.5 Q13.5 24.5 10.5 17.5"/>
    <path d="M20.2 28.5 Q26 31 28.2 34.5"/>
    <path d="M20.3 39.5 Q17.5 46.5 15.2 52"/>
    <path d="M20.3 39.5 Q23.5 46.5 25.6 52"/>
    <!-- postava B (vpravo, menší) -->
    <circle cx="43" cy="22" r="5.6"/>
    <path d="M43 27.8 L42.8 42"/>
    <path d="M43 31.5 Q38 34 35.8 36.5"/>
    <path d="M43 31.5 Q48.5 34 50.4 36.2"/>
    <path d="M42.8 42 Q40 48 38.6 52.5"/>
    <path d="M42.8 42 Q46 48 47.4 52.5"/>
  </g>
  <!-- obličeje -->
  <g fill="#F4ECDD">
    <circle cx="17.8" cy="14.5" r="1.05"/><circle cx="22.4" cy="14.5" r="1.05"/>
    <circle cx="41.1" cy="21" r="0.95"/><circle cx="45.1" cy="21" r="0.95"/>
  </g>
  <g stroke="#F4ECDD" stroke-width="1.7" stroke-linecap="round">
    <path d="M17.9 18.2 Q20.1 20 22.3 18.2"/>
    <path d="M41.3 24.4 Q43 25.8 44.9 24.4"/>
  </g>
  <!-- akcenty -->
  <path d="M55 6.5 L56.4 10.6 L60.2 12 L56.4 13.4 L55 17.5 L53.6 13.4 L49.8 12 L53.6 10.6 Z" fill="#FFC93C"/>
  <path d="M8.6 43.5 L9.5 46 L11.9 46.9 L9.5 47.8 L8.6 50.3 L7.7 47.8 L5.3 46.9 L7.7 46 Z" fill="#7B5EA7"/>
  <circle cx="57.5" cy="42" r="1.9" fill="#9CB380"/>
</svg>
